<?xml version="1.0" encoding="utf-8"?>
<!-- Generator: Adobe Illustrator 24.3.0, SVG Export Plug-In . SVG Version: 6.00 Build 0)  -->
<svg version="1.1" id="Layer_1" xmlns="http://www.w3.org/2000/svg" xmlns:xlink="http://www.w3.org/1999/xlink" x="0px" y="0px"
	 viewBox="0 0 1280 408" style="enable-background:new 0 0 1280 408;" xml:space="preserve">
<style type="text/css">
	.st0{fill:#FFFFFF;}
	.st1{fill:none;}
	.st2{fill:#355BF9;}
	.st-white{fill: #ffffff;}
	.st-blue{fill: #355bf9;}
</style>
<g>
	<path class="st0 st-white" d="M787.4,299.4h-17v48h17c14.9,0,25-10.7,25-24.1v-0.1C812.4,309.8,802.4,299.4,787.4,299.4z M807.4,323.4
		c0,10.5-8,18.9-20,18.9h-11v-38h11c12,0,20,8.4,20,18.9V323.4z M838.1,311.2c-9.7,0-16.6,8.2-16.6,18.3v0.1
		c0,10.9,7.6,18.3,17.3,18.3c6.7,0,10.8-2.6,14.4-6.6l-3.3-2.9c-2.9,3-6.3,4.9-11.1,4.9c-6.2,0-11.6-3.9-12.4-11.9h27.9
		c0.1-1,0.2-1,0.2-1.6C854.3,319.5,848.5,311.2,838.1,311.2z M826.3,327.4c0.7-7,5.3-12,11.4-12c7,0,10.7,6,11.2,12H826.3z
		 M887.4,337.1v0.1c0,6.7-5.5,10.5-12.5,10.5c-5,0-10.6-2-14.5-5.2l2.6-3.7c3.8,2.9,8,4.5,12.1,4.5c4.2,0,7.2-2.2,7.2-5.6v-0.1
		c0-3.5-4-4.9-8.6-6.2c-5.5-1.6-11.4-3.5-11.4-9.9v-0.1c0-6,4.9-10.1,11.8-10.1c4.3,0,8.9,1.5,12.5,3.9l-2.3,3.9
		c-3.3-2.1-6.9-3.4-10.3-3.4c-4.1,0-6.7,2.2-6.7,5.1v0.1c0,3.3,4.2,4.6,8.9,6C881.8,328.7,887.4,330.8,887.4,337.1z M897.4,312.4h5
		v35h-5V312.4z M897.4,298.4h6v6h-6V298.4z M943.4,318.3c-3-3.8-7-7.1-13.6-7.1c-8.4,0-16.4,6.3-16.4,16.6v0.1
		c0,10.1,7.9,16.4,16.4,16.4c6.5,0,10.6-3.3,13.6-7.4v4.1c0,8.2-5.1,12.5-12.8,12.5c-5,0-9.5-1.6-13.5-4.5l-2.4,4.1
		c4.7,3.3,10.1,4.9,16,4.9c5.6,0,10.2-1.6,13.4-4.7c2.9-2.9,4.5-7,4.5-12.4v-28.6h-5V318.3z M943.4,327.9c0,7.1-6.2,11.9-12.9,11.9
		c-6.5,0-12.1-4.9-12.1-12v-0.1c0-7.2,5.5-11.8,12.1-11.8c6.7,0,12.9,4.7,12.9,11.9V327.9z M990.4,325.3v22.1h-5v-20.8
		c0-6.5-3.4-10.6-9.6-10.6c-6,0-10.4,4.4-10.4,11v20.4h-5v-35h5v5.7c2-3.8,5.7-6.9,11.8-6.9C985.7,311.2,990.4,316.9,990.4,325.3z
		 M1046.4,337.1v0.1c0,6.7-5.5,10.5-12.5,10.5c-5,0-10.6-2-14.5-5.2l2.6-3.7c3.8,2.9,8,4.5,12.1,4.5c4.2,0,7.2-2.2,7.2-5.6v-0.1
		c0-3.5-4-4.9-8.6-6.2c-5.5-1.6-11.4-3.5-11.4-9.9v-0.1c0-6,4.9-10.1,11.8-10.1c4.3,0,8.9,1.5,12.5,3.9l-2.3,3.9
		c-3.3-2.1-6.9-3.4-10.3-3.4c-4.1,0-6.7,2.2-6.7,5.1v0.1c0,3.3,4.2,4.6,8.9,6C1040.8,328.7,1046.4,330.8,1046.4,337.1z
		 M1062.4,312.4h11v4h-11v20.7c0,4.3,2.4,5.8,5.9,5.8c1.8,0,3.1-0.3,5.1-1.2v4.5c-2,1-3.7,1.5-6.2,1.5c-5.6,0-9.8-2.8-9.8-9.9v-21.4
		h-5v-4h5v-11h5V312.4z M1107.4,312.4h6v35h-6V341c-2,3.8-5.7,6.9-11.8,6.9c-8.5,0-13.2-5.7-13.2-14.1v-21.4h5v20.1
		c0,6.5,3.4,10.6,9.6,10.6c6,0,10.4-4.4,10.4-11V312.4z M1153.4,318.7c-3-3.9-7.3-7.5-13.8-7.5c-8.4,0-17.2,6.8-17.2,18.3v0.1
		c0,11.5,8.7,18.2,17.2,18.2c6.5,0,10.8-3.6,13.8-7.8v7.3h5v-50h-5V318.7z M1153.4,329.6c0,8.1-6.1,13.6-12.7,13.6
		c-6.6,0-12.3-5.3-12.3-13.6v-0.1c0-8.5,5.5-13.5,12.3-13.5c6.5,0,12.7,5.4,12.7,13.5V329.6z M1170.4,298.4h6v6h-6V298.4z
		 M1170.4,312.4h5v35h-5V312.4z M1204,311.2c-10.6,0-18.5,8.4-18.5,18.3v0.1c0,9.9,7.9,18.2,18.4,18.2c10.6,0,18.6-8.4,18.6-18.3
		v-0.1C1222.4,319.5,1214.5,311.2,1204,311.2z M1216.4,329.7c0,7.4-4.9,13.5-12.5,13.5c-7.4,0-12.5-6.1-12.5-13.7v-0.1
		c0-7.4,4.8-13.6,12.4-13.6c7.4,0,12.6,6.2,12.6,13.7V329.7z"/>
	<g>
		<path class="st0 st-blue" d="M47.4,216.3c-17.3,0-29.5,12.1-29.5,29.4c0,17.6,12.1,29.8,29.5,29.8c17.6,0,29.7-12.1,29.7-29.8
			C77.1,228.5,65,216.3,47.4,216.3z"/>
		<path class="st0 st-blue" d="M1142.1,113.5c-50,0-86.3,37.3-86.3,81.7v0.6c0,44.5,36.1,81.2,85.8,81.2c50.2,0,86.6-37.3,86.6-81.8v-0.6
			C1228.2,150.2,1192.1,113.5,1142.1,113.5z M1141.1,248.4c-19.1,0-34.6-23.2-34.6-51.8c0-28.6,15.5-51.8,34.6-51.8
			c19.1,0,34.6,23.2,34.6,51.8C1175.7,225.1,1160.2,248.4,1141.1,248.4z"/>
	</g>
	<g>
		<polygon class="st0" points="1228.8,52 1234.6,52 1234.6,67.6 1237,67.6 1237,52 1242.8,52 1242.8,49.9 1228.8,49.9 		"/>
		<path class="st0" d="M1258.9,49.9l-4.2,12.3c-0.4,1.2-0.7,2.2-0.9,2.8c-0.2-0.6-0.5-1.5-0.8-2.6l-4.2-12.5h-3.5v17.7h2.3V52.5
			l5.1,15.1h2.1l5.1-14.8v14.8h2.3V49.9H1258.9z"/>
	</g>
	<g>
		<path class="st0" d="M548,62.7h-54.6V117H475v43.9h18.5v63.8c0,37.3,19.3,51.7,52.3,51.7c15.3,0,28.3-3.7,38.1-9.2v-42.7
			c-6.6,3.1-13.6,5.2-20.8,5.2c-10.1,0-15-4.6-15-15.6v-53.1h36.4V117H548V62.7z"/>
		<polygon class="st0" points="605.4,160.3 674.8,160.3 602.9,237.1 602.9,273.2 747.5,273.2 747.5,229.6 675,229.6 747.5,152.8 
			747.5,117 605.4,117 		"/>
		<path class="st0" d="M996.1,148.5V117h-54.9v156.2h54.9v-48.8c0-35.8,16.2-52.3,44.7-52.3h4.7v-57.7
			C1019.4,113.2,1005,127.1,996.1,148.5z"/>
		<path class="st0" d="M211.4,62.4v73.7c-10-11.8-24.1-22.5-47.8-22.5c-37,0-69.2,30.9-69.2,81.7v0.6c0,50,32.2,80.9,69.5,80.9
			c23.4,0,36.5-11.3,47.5-24.3v20.9h55v-211H211.4z M212.4,195.2c0,20.8-14.1,35.5-32,35.5c-17.6,0-32-14.8-32-35.5v-0.6
			c0-20.8,14.4-35.5,32-35.5c17.9,0,32,15,32,35.5V195.2z"/>
		<path class="st0" d="M376.1,113.5c-49.9,0-86.6,37.3-86.6,81.7v0.6c0,44.5,36.4,81.2,86.1,81.2c50.3,0,86.9-37.3,86.9-81.8v-0.6
			C462.4,150.2,426.1,113.5,376.1,113.5z M408.4,195.8c0,18.8-12.9,34.7-32.9,34.7c-19.3,0-33.1-16.2-33.1-35.2v-0.6
			c0-19.1,12.6-34.9,32.6-34.9c19.3,0,33.4,16.2,33.4,35.5V195.8z"/>
		<path class="st0" d="M917.6,199.1c0-45.9-24.7-85.5-78.4-85.5c-46.2,0-78.7,36.1-78.7,81.7v0.6c0,48.2,34.5,81.2,83.6,81.2
			c30.9,0,52.5-12.7,67.5-31.8l-30.4-25.1c-11.2,11-21.4,15.9-34.7,15.9c-17,0-29.5-8.7-33.8-25.7h104.5
			C917.6,206.4,917.6,202.5,917.6,199.1z M811.9,182.4c2.9-17,12.7-28.3,27.1-28.3c15,0,25.4,11.3,27.4,28.3H811.9z"/>
	</g>
</g>
</svg>
